<?xml version="1.0" standalone="no"?>
<!DOCTYPE svg PUBLIC "-//W3C//DTD SVG 20010904//EN"
 "http://www.w3.org/TR/2001/REC-SVG-20010904/DTD/svg10.dtd">
<svg version="1.0" xmlns="http://www.w3.org/2000/svg"
 width="1955.000000pt" height="1955.000000pt" viewBox="0 0 1955.000000 1955.000000"
 preserveAspectRatio="xMidYMid meet">
<metadata>
Created by potrace 1.14, written by Peter Selinger 2001-2017
</metadata>
<g transform="translate(0.000000,1955.000000) scale(0.100000,-0.100000)"
fill="#000000" stroke="none">
<path d="M3006 19539 c-661 -47 -1281 -290 -1801 -705 -141 -113 -376 -348
-489 -489 -394 -494 -627 -1063 -698 -1700 -11 -99 -13 -1328 -13 -6885 0
-6406 1 -6772 18 -6900 70 -537 236 -988 523 -1420 120 -182 239 -326 404
-490 530 -531 1194 -848 1955 -932 99 -11 1328 -13 6885 -13 6406 0 6772 1
6900 18 537 70 988 236 1420 523 182 120 326 239 490 404 531 530 848 1194
932 1955 11 99 13 1328 13 6885 0 6406 -1 6772 -18 6900 -70 537 -236 988
-523 1420 -120 182 -239 326 -404 490 -518 519 -1140 822 -1900 927 -117 16
-546 17 -6855 19 -3702 1 -6779 -2 -6839 -7z m1243 -2615 c512 -268 816 -433
1156 -629 1759 -1012 2891 -1957 3479 -2903 305 -489 466 -984 506 -1552 15
-219 14 -9270 -2 -9270 -14 0 -347 172 -683 353 -1998 1077 -3322 2113 -4004
3134 -358 536 -548 1068 -601 1683 -11 125 -15 9260 -4 9260 3 0 72 -34 153
-76z m6401 -182 c1347 -714 2397 -1400 3155 -2063 165 -144 496 -469 628 -618
622 -695 942 -1379 1007 -2151 8 -99 10 -1362 8 -4740 l-3 -4606 -210 109
c-2038 1052 -3438 2061 -4230 3047 -536 668 -815 1355 -852 2100 -5 85 -7
2186 -5 4667 l3 4513 122 -61 c67 -34 237 -122 377 -197z"/>
</g>
</svg>
